<svg width="101" height="101" viewBox="0 0 101 101" fill="none" xmlns="http://www.w3.org/2000/svg">
<g id="Group">
<path id="Vector" fill-rule="evenodd" clip-rule="evenodd" d="M85.9021 21.1251L79.4203 0.136108L72.9385 21.1251L60.3987 27.0964L72.9937 33.0942L79.4203 51.4559L85.847 33.0942L98.4422 27.0964L85.9021 21.1251ZM77.5421 25.1059L79.4203 19.0243L81.2985 25.1059L85.4788 27.0964L81.3537 29.0608L79.4203 34.5848L77.4869 29.0608L73.3621 27.0964L77.5421 25.1059Z" fill="#5E5959"/>
<path id="Vector_2" d="M36.2268 27.6935L39.0135 16.5468L41.8002 27.6935L50.1602 30.4801L41.8002 33.2668L39.0135 44.4135L36.2268 33.2668L27.8668 30.4801L36.2268 27.6935Z" fill="#5E5959"/>
<path id="Vector_3" fill-rule="evenodd" clip-rule="evenodd" d="M19.5067 93.875V94.5628C19.5067 97.6407 17.0116 100.136 13.9334 100.136H5.57336C2.49528 100.136 0 97.6407 0 94.5628V63.9221C0 60.8443 2.49528 58.3488 5.57336 58.3488H13.9334C16.5696 58.3488 18.7783 60.1791 19.3582 62.6383C23.0489 61.3082 27.3596 59.7251 28.6785 59.1238C29.7988 58.6135 31.0924 58.4402 32.1672 58.378C33.2975 58.3128 34.4701 58.358 35.4962 58.4374C36.5311 58.5174 37.4705 58.6369 38.1488 58.7356C38.4893 58.7852 38.768 58.83 38.9645 58.8629C39.0628 58.8796 39.1409 58.893 39.196 58.9031L39.2615 58.9148L39.2807 58.9184L39.2908 58.9201L39.3406 58.9295L57.9802 63.1109L58.0967 63.1483L58.1284 63.158L58.2569 63.1973C58.3742 63.2327 58.5523 63.2848 58.7819 63.3484C59.242 63.476 59.9036 63.6479 60.6922 63.8199C62.2942 64.1693 64.3124 64.4956 66.1942 64.4956C67.9328 64.4956 69.7313 65.1435 70.6927 66.9044C71.5184 68.4162 71.3261 70.0762 71.0171 71.2257C70.6323 72.6564 69.8353 74.1621 68.822 75.4412C70.1895 74.9253 71.6842 74.3145 73.2888 73.6563L73.6318 73.5153C78.1546 71.6593 83.5176 69.4584 88.248 68.6762C93.6533 67.782 97.5875 69.7441 99.371 73.2252C100.959 76.3237 100.59 80.3906 98.2006 82.8409C97.6009 83.4559 96.6871 84.101 95.7695 84.6963C94.7897 85.3316 93.5828 86.0498 92.2418 86.8102C89.556 88.3337 86.2313 90.0849 82.8931 91.7778C76.2831 95.1301 69.3543 98.3903 67.1525 99.1965C64.6011 100.131 61.8604 100.219 59.2247 100.084C57.789 100.01 56.1212 99.8441 54.4634 99.6791C53.2657 99.5601 52.0735 99.4414 50.9781 99.3587C45.6059 98.9515 41.4828 97.6404 37.6848 96.4326L37.2231 96.2858C33.3005 95.0407 29.6514 93.9363 24.8165 93.7416C23.711 93.697 21.5037 93.778 19.5067 93.875ZM30.9901 64.1952C31.1687 64.1139 31.6425 63.9913 32.4885 63.9422C33.2788 63.8965 34.1806 63.9255 35.0662 63.994C35.9429 64.062 36.7532 64.1646 37.3465 64.2507C37.6413 64.2936 37.879 64.3321 38.0398 64.3591C38.1204 64.3727 38.1811 64.3833 38.2204 64.3903L38.2265 64.3914L56.528 68.497L56.6537 68.5352C56.8059 68.5809 57.0224 68.6442 57.2933 68.7194C57.8342 68.8693 58.5974 69.0672 59.5042 69.265C61.135 69.6209 63.3197 69.9963 65.5469 70.0598C65.388 70.5104 65.1191 71.0424 64.7546 71.5721C64.3098 72.2186 63.8213 72.7186 63.4203 73.0048C62.2594 73.8341 61.3225 74.181 60.7538 74.3287C60.4659 74.4034 60.2633 74.4293 60.1633 74.4382L60.1262 74.4413L60.1045 74.4424L45.1623 74.2618L44.6289 79.7898L45.1286 77.0482L44.6317 79.7903L44.78 79.8171L45.2049 79.8934C45.5728 79.9595 46.1025 80.0537 46.7538 80.1676C48.0552 80.3956 49.8428 80.7027 51.7865 81.0193C55.6165 81.6435 60.2329 82.3351 62.8521 82.4931C64.661 82.6024 66.7677 82.0473 68.727 81.3929C70.7716 80.7105 73.0812 79.7655 75.4039 78.8125C80.1895 76.8495 85.0622 74.8521 89.1575 74.1749C92.6977 73.5891 93.9579 74.8824 94.4107 75.7664C95.0594 77.0329 94.7067 78.4407 94.2104 78.9499C94.0886 79.0747 93.6497 79.4281 92.7367 80.0202C91.886 80.572 90.7844 81.2296 89.4922 81.9625C86.9115 83.4261 83.6714 85.1338 80.3723 86.8072C73.7079 90.1871 67.0742 93.2898 65.2359 93.9631C63.7472 94.5084 61.9075 94.6411 59.5115 94.5176C58.0961 94.4449 56.7535 94.3084 55.2896 94.1593C54.1064 94.0389 52.8438 93.9107 51.3992 93.8012C46.6847 93.4439 43.1004 92.3053 39.2596 91.085L38.9096 90.9738C34.9313 89.7109 30.6744 88.3995 25.0408 88.1726C23.7726 88.1217 21.5148 88.2 19.5067 88.295V68.5071C23.4234 67.1054 29.2242 65.0003 30.9901 64.1952ZM38.78 61.6596L39.2908 58.9201C39.2913 58.9203 39.2908 58.9201 38.78 61.6596ZM13.9334 63.9221H5.57336V94.5628H13.9334V63.9221Z" fill="#5E5959"/>
</g>
</svg>
